<?xml version="1.0" standalone="no"?>
<!DOCTYPE svg PUBLIC "-//W3C//DTD SVG 20010904//EN"
 "http://www.w3.org/TR/2001/REC-SVG-20010904/DTD/svg10.dtd">
<svg version="1.0" xmlns="http://www.w3.org/2000/svg"
 width="256.000000pt" height="256.000000pt" viewBox="0 0 256.000000 256.000000"
 preserveAspectRatio="xMidYMid meet">
<metadata>
Created by potrace 1.11, written by Peter Selinger 2001-2013
</metadata>
<g transform="translate(0.000000,256.000000) scale(0.100000,-0.100000)"
fill="#000000" stroke="none">
<path d="M339 2492 c-175 -47 -297 -182 -330 -362 -23 -133 22 -275 124 -386
36 -39 48 -60 41 -69 -169 -229 -178 -265 -172 -664 l4 -256 32 -94 c82 -237
142 -303 409 -452 103 -57 219 -115 258 -129 l70 -25 481 -3 c566 -4 554 -5
741 93 382 201 432 249 524 500 l33 90 4 290 c5 378 -8 438 -129 598 l-51 67
53 58 c97 106 143 248 121 378 -33 200 -185 348 -385 377 -94 13 -171 -8 -231
-65 -40 -39 -41 -39 -76 -24 -97 41 -101 41 -575 41 l-460 0 -83 -28 -83 -28
-19 23 c-10 13 -41 36 -68 51 -66 36 -146 43 -233 19z m1134 -1005 c40 -20 90
-55 113 -79 57 -60 311 -421 343 -488 23 -49 26 -67 26 -165 -1 -103 -4 -119
-47 -254 -64 -199 -115 -269 -243 -334 -61 -30 -144 -47 -237 -47 l-68 0 0
225 0 225 25 0 c72 0 150 88 179 203 18 72 -44 165 -123 187 -59 16 -314 3
-359 -17 -47 -22 -75 -67 -80 -129 -9 -104 74 -226 162 -241 l36 -6 0 -223 0
-224 -59 0 c-141 0 -259 47 -339 135 -62 68 -82 108 -134 276 -36 114 -42 147
-42 224 -1 74 4 100 24 150 26 61 300 456 352 507 85 83 186 120 311 114 77
-3 98 -8 160 -39z"/>
</g>
</svg>
